<svg xmlns="http://www.w3.org/2000/svg" width="30" height="30" viewBox="0 0 25 25">
  <path id="Path_2" data-name="Path 2" d="M14.472,25H10.528a1.446,1.446,0,0,1-1.444-1.444v-.587a.212.212,0,0,0-.126-.2,10.787,10.787,0,0,1-1.215-.5.2.2,0,0,0-.223.05l-.421.421a1.444,1.444,0,0,1-2.043,0L2.267,19.944a1.446,1.446,0,0,1,0-2.043l.421-.421a.2.2,0,0,0,.05-.222,10.811,10.811,0,0,1-.505-1.216.212.212,0,0,0-.2-.126H1.444A1.446,1.446,0,0,1,0,14.472V10.528A1.446,1.446,0,0,1,1.444,9.083h.587a.211.211,0,0,0,.2-.126,10.876,10.876,0,0,1,.5-1.215.2.2,0,0,0-.05-.223L2.267,7.1a1.446,1.446,0,0,1,0-2.043L5.056,2.266a1.445,1.445,0,0,1,2.043,0l.421.421a.2.2,0,0,0,.222.05,10.86,10.86,0,0,1,1.215-.5.211.211,0,0,0,.126-.2V1.444A1.446,1.446,0,0,1,10.528,0h3.944a1.446,1.446,0,0,1,1.444,1.444v.587a.211.211,0,0,0,.126.2,10.864,10.864,0,0,1,1.215.5.2.2,0,0,0,.223-.05l.421-.421a1.446,1.446,0,0,1,2.043,0l2.789,2.789a1.446,1.446,0,0,1,0,2.043l-.421.421a.2.2,0,0,0-.05.223,10.722,10.722,0,0,1,.505,1.216.211.211,0,0,0,.2.126h.587A1.446,1.446,0,0,1,25,10.528v3.944a1.446,1.446,0,0,1-1.444,1.444h-.587a.211.211,0,0,0-.2.126,10.876,10.876,0,0,1-.5,1.215.2.2,0,0,0,.05.223l.421.421a1.446,1.446,0,0,1,0,2.043l-2.789,2.789a1.444,1.444,0,0,1-2.043,0l-.421-.42a.2.2,0,0,0-.223-.051,10.723,10.723,0,0,1-1.216.505.211.211,0,0,0-.126.2v.587A1.446,1.446,0,0,1,14.472,25Zm-3.444-1.944h2.944v-.087a2.15,2.15,0,0,1,1.435-2.039,8.872,8.872,0,0,0,1-.414,2.141,2.141,0,0,1,2.451.423l.067.067L21,18.923l-.067-.068a2.14,2.14,0,0,1-.422-2.451,8.889,8.889,0,0,0,.413-1,2.15,2.15,0,0,1,2.039-1.436h.087V11.028h-.087a2.15,2.15,0,0,1-2.039-1.435,8.873,8.873,0,0,0-.414-1,2.141,2.141,0,0,1,.423-2.451L21,6.077,18.923,3.995l-.068.068a2.141,2.141,0,0,1-2.451.422,8.911,8.911,0,0,0-1-.414,2.149,2.149,0,0,1-1.436-2.039V1.944H11.028v.087A2.15,2.15,0,0,1,9.592,4.071a8.834,8.834,0,0,0-1,.414,2.141,2.141,0,0,1-2.451-.422l-.067-.067L4,6.077l.068.067A2.142,2.142,0,0,1,4.485,8.6a8.884,8.884,0,0,0-.414,1,2.15,2.15,0,0,1-2.039,1.436H1.944v2.944h.087a2.15,2.15,0,0,1,2.039,1.436,8.885,8.885,0,0,0,.414,1,2.14,2.14,0,0,1-.422,2.451l-.067.068L6.077,21l.067-.067A2.141,2.141,0,0,1,8.6,20.515a8.886,8.886,0,0,0,1,.414,2.15,2.15,0,0,1,1.436,2.039v.087Zm1.48-3.5a7.042,7.042,0,1,1,.563-.022h0Q12.788,19.556,12.508,19.556ZM12.491,7.388q-.2,0-.409.016A5.113,5.113,0,0,0,12.917,17.6h0a5.112,5.112,0,0,0-.426-10.207Z" fill="#2a135a"/>
</svg>
