<?xml version="1.0" encoding="iso-8859-1"?>
<!-- Uploaded to: SVG Repo, www.svgrepo.com, Generator: SVG Repo Mixer Tools -->
<!DOCTYPE svg PUBLIC "-//W3C//DTD SVG 1.1//EN" "http://www.w3.org/Graphics/SVG/1.1/DTD/svg11.dtd">
<svg fill="#000000" height="800px" width="800px" version="1.1" id="Capa_1" xmlns="http://www.w3.org/2000/svg" xmlns:xlink="http://www.w3.org/1999/xlink" 
	 viewBox="0 0 490.001 490.001" xml:space="preserve">
<g>
	<path d="M282.267,256.561c16.361,26.434,55.17,34.959,89.984,18.725c34.813-16.233,53.229-51.442,43.496-80.969L282.267,256.561z"
		/>
	<circle cx="69.501" cy="261.501" r="41.5"/>
	<path d="M231.003,428.057L125.293,287.333c-2.999,6.451-7.078,12.299-12.013,17.307l93.433,124.379
		c-7.169,0.744-14.094,1.883-20.701,3.375L98.402,315.767c-6.144,3.285-12.906,5.556-20.064,6.59l87.247,116.145
		c-29.247,11.131-48.494,30.042-48.494,51.5H336C336,456.607,289.384,429.382,231.003,428.057z"/>
	<g>
		<path d="M219.11,263.944L462,150.683c-22.935-49.184-65.506-81.924-110.798-90.774C327.053,22.957,294.196,0,265.819,0
			c-6.981,0-13.687,1.389-19.931,4.3c-31.621,14.745-41.024,63.774-25.097,116.42C198.458,161.105,196.175,214.761,219.11,263.944z"
			/>
		<path d="M194.215,90.81L82.187,201.323c7.271,1.531,14.067,4.359,20.15,8.217l96.116-94.817
			C196.5,106.632,195.088,98.64,194.215,90.81z"/>
		<path d="M189.464,144.835L114.079,219.2c4.672,4.922,8.538,10.609,11.389,16.858l57.983-57.198
			C184.329,167.219,186.356,155.806,189.464,144.835z"/>
	</g>
</g>
</svg>